<svg width="420" height="207" viewBox="0 0 420 207" fill="none" xmlns="http://www.w3.org/2000/svg">
<path d="M37.7344 45.5781C32.2656 45.5781 28.0312 47.6406 25.0312 51.7656C22.0312 55.8594 20.5312 61.5781 20.5312 68.9219C20.5312 84.2031 26.2656 91.8438 37.7344 91.8438C42.5469 91.8438 48.375 90.6406 55.2188 88.2344V100.422C49.5938 102.766 43.3125 103.938 36.375 103.938C26.4062 103.938 18.7812 100.922 13.5 94.8906C8.21875 88.8281 5.57812 80.1406 5.57812 68.8281C5.57812 61.7031 6.875 55.4688 9.46875 50.125C12.0625 44.75 15.7812 40.6406 20.625 37.7969C25.5 34.9219 31.2031 33.4844 37.7344 33.4844C44.3906 33.4844 51.0781 35.0938 57.7969 38.3125L53.1094 50.125C50.5469 48.9062 47.9688 47.8438 45.375 46.9375C42.7812 46.0312 40.2344 45.5781 37.7344 45.5781ZM126 103H111.516V73.4219H84.375V103H69.8438V34.4688H84.375V61.3281H111.516V34.4688H126V103ZM205.547 68.6406C205.547 79.9844 202.734 88.7031 197.109 94.7969C191.484 100.891 183.422 103.938 172.922 103.938C162.422 103.938 154.359 100.891 148.734 94.7969C143.109 88.7031 140.297 79.9531 140.297 68.5469C140.297 57.1406 143.109 48.4375 148.734 42.4375C154.391 36.4062 162.484 33.3906 173.016 33.3906C183.547 33.3906 191.594 36.4219 197.156 42.4844C202.75 48.5469 205.547 57.2656 205.547 68.6406ZM155.531 68.6406C155.531 76.2969 156.984 82.0625 159.891 85.9375C162.797 89.8125 167.141 91.75 172.922 91.75C184.516 91.75 190.312 84.0469 190.312 68.6406C190.312 53.2031 184.547 45.4844 173.016 45.4844C167.234 45.4844 162.875 47.4375 159.938 51.3438C157 55.2188 155.531 60.9844 155.531 68.6406ZM281.953 68.6406C281.953 79.9844 279.141 88.7031 273.516 94.7969C267.891 100.891 259.828 103.938 249.328 103.938C238.828 103.938 230.766 100.891 225.141 94.7969C219.516 88.7031 216.703 79.9531 216.703 68.5469C216.703 57.1406 219.516 48.4375 225.141 42.4375C230.797 36.4062 238.891 33.3906 249.422 33.3906C259.953 33.3906 268 36.4219 273.562 42.4844C279.156 48.5469 281.953 57.2656 281.953 68.6406ZM231.938 68.6406C231.938 76.2969 233.391 82.0625 236.297 85.9375C239.203 89.8125 243.547 91.75 249.328 91.75C260.922 91.75 266.719 84.0469 266.719 68.6406C266.719 53.2031 260.953 45.4844 249.422 45.4844C243.641 45.4844 239.281 47.4375 236.344 51.3438C233.406 55.2188 231.938 60.9844 231.938 68.6406ZM336.609 83.9688C336.609 90.1562 334.375 95.0312 329.906 98.5938C325.469 102.156 319.281 103.938 311.344 103.938C304.031 103.938 297.562 102.562 291.938 99.8125V86.3125C296.562 88.375 300.469 89.8281 303.656 90.6719C306.875 91.5156 309.812 91.9375 312.469 91.9375C315.656 91.9375 318.094 91.3281 319.781 90.1094C321.5 88.8906 322.359 87.0781 322.359 84.6719C322.359 83.3281 321.984 82.1406 321.234 81.1094C320.484 80.0469 319.375 79.0312 317.906 78.0625C316.469 77.0938 313.516 75.5469 309.047 73.4219C304.859 71.4531 301.719 69.5625 299.625 67.75C297.531 65.9375 295.859 63.8281 294.609 61.4219C293.359 59.0156 292.734 56.2031 292.734 52.9844C292.734 46.9219 294.781 42.1562 298.875 38.6875C303 35.2188 308.688 33.4844 315.938 33.4844C319.5 33.4844 322.891 33.9062 326.109 34.75C329.359 35.5938 332.75 36.7812 336.281 38.3125L331.594 49.6094C327.938 48.1094 324.906 47.0625 322.5 46.4688C320.125 45.875 317.781 45.5781 315.469 45.5781C312.719 45.5781 310.609 46.2188 309.141 47.5C307.672 48.7812 306.938 50.4531 306.938 52.5156C306.938 53.7969 307.234 54.9219 307.828 55.8906C308.422 56.8281 309.359 57.75 310.641 58.6562C311.953 59.5312 315.031 61.125 319.875 63.4375C326.281 66.5 330.672 69.5781 333.047 72.6719C335.422 75.7344 336.609 79.5 336.609 83.9688ZM388.5 103H349.031V34.4688H388.5V46.375H363.562V61.4219H386.766V73.3281H363.562V91H388.5V103Z" fill="#B49DF8"/>
<path d="M126.406 121.469V165.812C126.406 170.875 125.266 175.312 122.984 179.125C120.734 182.938 117.469 185.859 113.188 187.891C108.906 189.922 103.844 190.938 98 190.938C89.1875 190.938 82.3438 188.688 77.4688 184.188C72.5938 179.656 70.1562 173.469 70.1562 165.625V121.469H84.6406V163.422C84.6406 168.703 85.7031 172.578 87.8281 175.047C89.9531 177.516 93.4688 178.75 98.375 178.75C103.125 178.75 106.562 177.516 108.688 175.047C110.844 172.547 111.922 168.641 111.922 163.328V121.469H126.406ZM157.719 153.719H162.5C166.969 153.719 170.312 152.844 172.531 151.094C174.75 149.312 175.859 146.734 175.859 143.359C175.859 139.953 174.922 137.438 173.047 135.812C171.203 134.188 168.297 133.375 164.328 133.375H157.719V153.719ZM190.531 142.844C190.531 150.219 188.219 155.859 183.594 159.766C179 163.672 172.453 165.625 163.953 165.625H157.719V190H143.188V121.469H165.078C173.391 121.469 179.703 123.266 184.016 126.859C188.359 130.422 190.531 135.75 190.531 142.844Z" fill="#B49DF8"/>
</svg>
